<?xml version="1.0" standalone="no"?>
<!DOCTYPE svg PUBLIC "-//W3C//DTD SVG 20010904//EN"
 "http://www.w3.org/TR/2001/REC-SVG-20010904/DTD/svg10.dtd">
<svg version="1.0" xmlns="http://www.w3.org/2000/svg"
 width="101.000000pt" height="101.000000pt" viewBox="0 0 101.000000 101.000000"
 preserveAspectRatio="xMidYMid meet">
<metadata>
Created by potrace 1.14, written by Peter Selinger 2001-2017
</metadata>
<g transform="translate(0.000000,101.000000) scale(0.100000,-0.100000)"
fill="#000000" stroke="none">
<path d="M250 797 c-48 -12 -62 -44 -61 -138 0 -75 3 -86 25 -108 22 -22 35
-25 103 -26 128 -3 151 22 148 152 -2 74 -11 95 -49 115 -24 13 -124 16 -166
5z m158 -64 c11 -25 6 -133 -7 -146 -12 -12 -133 -13 -151 -2 -15 9 -13 152 3
158 6 3 42 6 79 6 55 1 69 -2 76 -16z"/>
<path d="M519 742 c11 -15 29 -37 40 -49 l22 -23 -33 -36 c-48 -52 -52 -62
-23 -56 14 2 37 18 51 35 l25 30 26 -32 c14 -17 34 -31 44 -31 26 0 24 9 -11
49 -17 18 -30 36 -30 40 0 3 16 26 35 50 19 24 35 45 35 46 0 1 -12 0 -26 -3
-14 -2 -35 -18 -47 -33 l-21 -29 -31 30 c-17 17 -41 32 -54 35 l-22 4 20 -27z"/>
<path d="M542 484 c-38 -15 -52 -53 -52 -134 0 -62 3 -73 28 -100 25 -28 32
-31 92 -32 103 -1 110 1 135 27 23 22 25 32 25 110 0 78 -2 88 -25 110 -13 14
-32 26 -42 27 -67 5 -138 2 -161 -8z m170 -57 c12 -19 9 -132 -4 -145 -7 -7
-41 -12 -80 -12 -79 0 -85 7 -82 88 2 72 3 72 25 80 31 12 132 4 141 -11z"/>
<path d="M263 474 c-44 -22 -77 -90 -67 -139 18 -95 122 -141 201 -90 19 13
22 20 14 28 -9 9 -17 8 -31 -1 -11 -6 -37 -12 -59 -12 -51 0 -91 43 -91 99 0
87 104 128 166 66 29 -29 38 -111 11 -102 -7 2 -13 23 -13 46 -1 23 -4 44 -7
48 -3 3 -25 5 -49 5 -48 -1 -78 -27 -78 -68 0 -45 30 -61 113 -62 69 -1 75 0
81 21 17 64 -10 129 -65 159 -41 22 -84 23 -126 2z m97 -109 c0 -33 -33 -51
-54 -29 -22 21 -4 54 29 54 20 0 25 -5 25 -25z"/>
</g>
</svg>
